<svg width="20" height="20" viewBox="0 0 20 20" fill="none" xmlns="http://www.w3.org/2000/svg">
<g clip-path="url(#clip0_1_83)">
<path fill-rule="evenodd" clip-rule="evenodd" d="M10.589 13.0892C10.4328 13.2454 10.2208 13.3332 9.99988 13.3332C9.77891 13.3332 9.56699 13.2454 9.41071 13.0892L4.69655 8.375C4.61695 8.29813 4.55347 8.20617 4.50979 8.1045C4.46612 8.00283 4.44313 7.89348 4.44217 7.78283C4.44121 7.67218 4.46229 7.56245 4.50419 7.46004C4.5461 7.35762 4.60797 7.26458 4.68622 7.18634C4.76446 7.10809 4.8575 7.04621 4.95992 7.00431C5.06233 6.96241 5.17206 6.94133 5.28271 6.94229C5.39336 6.94325 5.50271 6.96624 5.60438 7.00991C5.70605 7.05359 5.79801 7.11707 5.87488 7.19667L9.99988 11.3217L14.1249 7.19667C14.282 7.04487 14.4925 6.96087 14.711 6.96277C14.9295 6.96467 15.1386 7.05231 15.2931 7.20682C15.4476 7.36132 15.5352 7.57033 15.5371 7.78883C15.539 8.00733 15.455 8.21783 15.3032 8.375L10.589 13.0892Z" fill="#41FF96"/>
</g>
<defs>
<clipPath id="clip0_1_83">
<rect width="20" height="20" fill="white"/>
</clipPath>
</defs>
</svg>
