<svg width="33" height="32" viewBox="0 0 33 32" fill="none" xmlns="http://www.w3.org/2000/svg">
<ellipse cx="16.5" cy="16" rx="16.5" ry="16" fill="white" fill-opacity="0.05"/>
<path d="M11.1723 18.5061C11.4882 16.743 12.2075 15.795 12.4005 15.5647V15.5558C12.4882 15.4495 12.5672 15.3698 12.6461 15.2989C12.6286 15.29 12.611 15.2812 12.5935 15.2723C12.1549 15.0774 11.6022 14.8293 10.953 14.7585C10.2951 14.6876 9.63717 14.8116 8.95291 15.1217C8.46166 15.3432 8.06689 15.7242 7.78618 16.2469V16.238C7.65459 16.4595 7.523 16.7342 7.40019 17.0443C7.28614 17.3278 7.21596 17.6024 7.16333 17.8416L7.18088 17.9391C7.83881 21.3058 10.2512 24.1054 13.5058 25.1951C10.7864 23.4675 10.839 20.3489 11.1723 18.5061Z" fill="white"/>
<path d="M25.0593 11.9408C25.0593 12.1977 25.0505 12.4547 25.0242 12.7204C24.6294 16.5035 21.2783 19.2412 17.5237 18.8513C15.5148 18.6387 13.8042 17.5667 12.6989 16.034C12.462 16.3529 11.9356 17.1946 11.69 18.6033C11.4444 19.9677 11.3303 22.2889 12.8129 23.9368C12.8129 23.9368 12.8129 23.9368 12.8217 23.9456C12.9883 24.1317 13.1813 24.3089 13.3919 24.4772C13.6551 24.6987 13.9445 24.9202 14.2779 25.1328C14.5586 25.31 14.8306 25.4607 15.085 25.5847C15.2253 25.6024 15.3657 25.629 15.5148 25.6378C20.7344 26.1871 25.4014 22.3598 25.9541 17.0971C26.1295 15.2543 25.7961 13.4912 25.0593 11.9408Z" fill="white"/>
<path d="M19.2344 13.8458C18.9274 13.6774 17.6905 12.9687 17.2431 12.3308C17.1027 12.0827 17.0676 11.8612 17.0238 11.5954V11.6043C17.0238 11.5777 17.015 11.56 17.015 11.5334C17.0062 11.4714 16.9974 11.4094 16.9887 11.3385C16.7343 10.1867 15.4447 9.32735 15.4447 9.32735H15.4973C15.4623 9.30963 15.4447 9.30077 15.4447 9.30077L15.4535 9.29191L17.1378 7.78577C16.3044 7.6263 15.3658 7.90095 14.6991 8.1756C15.0324 7.28077 15.9798 6.62515 16.1991 6.4834C11.5234 6.62515 7.54949 10.2399 7.04946 15.0773C6.99683 15.6266 6.98805 16.1582 7.01437 16.6897C7.28632 15.8658 7.78635 15.0507 8.725 14.6254C11.0585 13.5623 12.5849 14.7849 13.4007 15.0064C13.427 15.0153 13.4534 15.0241 13.4709 15.033C13.9709 15.1659 14.6376 15.6532 16.1465 15.8746C18.7519 16.2645 19.5853 14.7495 19.6555 14.3065C19.7169 13.9698 19.3836 13.8724 19.2344 13.8458ZM15.05 11.0195L15.0675 10.993C15.2079 11.0904 15.3921 11.2322 15.5675 11.4448C15.7868 11.7195 15.9009 11.9853 15.9623 12.1624V12.1713C14.4096 11.9055 14.9447 11.1524 15.05 11.0195Z" fill="white"/>
</svg>
