<svg width="46" height="45" viewBox="0 0 46 45" fill="none" xmlns="http://www.w3.org/2000/svg">
<path d="M9.99253 28.1665C10.7483 24.036 12.4697 21.815 12.9315 21.2754V21.2546C13.1414 21.0055 13.3303 20.8187 13.5193 20.6527C13.4773 20.6319 13.4353 20.6112 13.3933 20.5904C12.3437 20.1338 11.0212 19.5526 9.46772 19.3865C7.89327 19.2205 6.31883 19.5111 4.68141 20.2376C3.50583 20.7565 2.56116 21.649 1.8894 22.8736V22.8529C1.57451 23.3718 1.25962 24.0152 0.965725 24.7417C0.692822 25.4059 0.524881 26.0494 0.398926 26.6098L0.440911 26.8381C2.01535 34.7256 7.78831 41.2846 15.5766 43.8376C9.06886 39.7901 9.19481 32.4839 9.99253 28.1665Z" fill="white"/>
<path d="M43.2237 12.7854C43.2237 13.3874 43.2027 13.9893 43.1397 14.612C42.195 23.475 34.1759 29.8888 25.191 28.9755C20.3837 28.4773 16.2902 25.9658 13.6451 22.3749C13.0783 23.1221 11.8188 25.094 11.231 28.3943C10.6432 31.5908 10.3703 37.029 13.918 40.8897C13.918 40.8897 13.918 40.8897 13.939 40.9104C14.3379 41.3463 14.7997 41.7614 15.3035 42.1558C15.9333 42.6747 16.6261 43.1936 17.4238 43.6918C18.0956 44.1069 18.7463 44.4598 19.3551 44.7504C19.691 44.7919 20.0269 44.8542 20.3837 44.8749C32.8743 46.1618 44.0424 37.195 45.3649 24.8657C45.7848 20.5483 44.987 16.4178 43.2237 12.7854Z" fill="white"/>
<path d="M29.2849 17.2486C28.5501 16.8542 25.5902 15.1937 24.5195 13.6993C24.1837 13.1181 24.0997 12.5992 23.9947 11.9765V11.9972C23.9947 11.935 23.9737 11.8934 23.9737 11.8312C23.9527 11.6859 23.9317 11.5406 23.9108 11.3745C23.302 8.6762 20.2161 6.66282 20.2161 6.66282H20.342C20.258 6.62131 20.2161 6.60055 20.2161 6.60055L20.2371 6.5798L24.2676 3.0512C22.2733 2.67758 20.0271 3.32103 18.4317 3.96448C19.2294 1.86808 21.4966 0.332103 22.0214 0C10.8324 0.332103 1.32275 8.80074 0.126172 20.1338C0.000216546 21.4207 -0.020776 22.666 0.0422017 23.9114C0.692971 21.9811 1.88955 20.0715 4.13575 19.0752C9.71978 16.5844 13.3725 19.4488 15.3248 19.9677C15.3878 19.9885 15.4507 20.0092 15.4927 20.03C16.6893 20.3413 18.2847 21.4829 21.8955 22.0018C28.1303 22.9151 30.1246 19.3658 30.2925 18.3279C30.4394 17.5392 29.6417 17.3109 29.2849 17.2486ZM19.2714 10.6273L19.3134 10.565C19.6493 10.7934 20.0901 11.1255 20.51 11.6236C21.0348 12.2671 21.3077 12.8898 21.4546 13.3049V13.3256C17.7389 12.7029 19.0195 10.9387 19.2714 10.6273Z" fill="white"/>
</svg>
