<svg width="25" height="25" viewBox="0 0 25 25" fill="none" xmlns="http://www.w3.org/2000/svg">
<circle cx="12.5" cy="12.5" r="12.5" fill="white" fill-opacity="0.2"/>
<path d="M7.73326 14.757C8.01582 13.1795 8.65944 12.3313 8.83212 12.1252V12.1173C8.91061 12.0221 8.98126 11.9508 9.0519 11.8874C9.0362 11.8795 9.0205 11.8715 9.0048 11.8636C8.61235 11.6892 8.11786 11.4672 7.53703 11.4038C6.94835 11.3404 6.35967 11.4514 5.74745 11.7288C5.3079 11.927 4.95469 12.2679 4.70352 12.7356V12.7277C4.58579 12.9258 4.46805 13.1716 4.35816 13.449C4.25613 13.7027 4.19333 13.9484 4.14624 14.1625L4.16194 14.2497C4.75062 17.2619 6.90911 19.7669 9.8211 20.7419C7.3879 19.1961 7.43499 16.4058 7.73326 14.757Z" fill="white" fill-opacity="0.2"/>
<path d="M20.1583 8.88288C20.1583 9.11277 20.1504 9.34265 20.1269 9.58046C19.7737 12.9653 16.7753 15.4148 13.416 15.066C11.6185 14.8757 10.088 13.9166 9.09898 12.5452C8.88705 12.8306 8.41611 13.5836 8.19634 14.844C7.97656 16.0648 7.87453 18.1417 9.20102 19.6161C9.20102 19.6161 9.20102 19.6161 9.20886 19.6241C9.358 19.7905 9.53068 19.9491 9.71905 20.0997C9.95452 20.2979 10.2135 20.496 10.5118 20.6863C10.763 20.8448 11.0063 20.9796 11.2339 21.0906C11.3595 21.1064 11.4851 21.1302 11.6185 21.1381C16.2887 21.6296 20.4644 18.2051 20.9589 13.4964C21.1159 11.8476 20.8176 10.2701 20.1583 8.88288Z" fill="white" fill-opacity="0.2"/>
<path d="M14.9466 10.5874C14.6719 10.4368 13.5652 9.80262 13.1649 9.23187C13.0393 9.00991 13.0079 8.81173 12.9686 8.57392V8.58185C12.9686 8.55807 12.9608 8.54221 12.9608 8.51843C12.9529 8.46294 12.9451 8.40745 12.9372 8.34403C12.7096 7.31352 11.5558 6.54459 11.5558 6.54459H11.6029C11.5715 6.52874 11.5558 6.52081 11.5558 6.52081L11.5636 6.51288L13.0707 5.16528C12.325 5.02259 11.4852 5.26833 10.8886 5.51407C11.1869 4.71344 12.0346 4.12683 12.2308 4C8.04727 4.12683 4.49165 7.36108 4.04425 11.6893C3.99716 12.1807 3.98931 12.6564 4.01286 13.132C4.25618 12.3948 4.70357 11.6655 5.54342 11.285C7.63127 10.3337 8.997 11.4277 9.72697 11.6258C9.75051 11.6338 9.77406 11.6417 9.78976 11.6496C10.2372 11.7685 10.8337 12.2045 12.1837 12.4027C14.5149 12.7515 15.2605 11.396 15.3233 10.9996C15.3783 10.6984 15.08 10.6112 14.9466 10.5874ZM11.2026 8.05866L11.2183 8.03488C11.3439 8.12208 11.5087 8.24891 11.6657 8.43916C11.8619 8.6849 11.9639 8.92271 12.0189 9.08125V9.08918C10.6296 8.85137 11.1084 8.17757 11.2026 8.05866Z" fill="white" fill-opacity="0.2"/>
</svg>
